<svg xmlns="http://www.w3.org/2000/svg" version="1.1" width="512" height="512" id="svg8" viewBox="0 0 512 512" xmlns:svg="http://www.w3.org/2000/svg"><metadata><rdf:RDF xmlns:rdf="http://www.w3.org/1999/02/22-rdf-syntax-ns#" xmlns:dc="http://purl.org/dc/elements/1.1/"><rdf:Description><dc:creator>RealFaviconGenerator</dc:creator><dc:source>https://realfavicongenerator.net</dc:source></rdf:Description></rdf:RDF></metadata><defs id="defs8"></defs><path style="fill:#c87137;fill-opacity:1;stroke:none;stroke-width:0.882872" d="m 211.8512,28.334489 c -9.03047,-0.05662 -17.7863,-0.917374 -26.74521,-1.959389 -4.13723,-0.481283 -9.12324,-1.828724 -13.27802,-1.260514 -3.68074,0.5039 -5.50153,5.064091 -9.05737,6.382407 -6.63155,2.459639 -14.50485,3.308659 -21.43442,4.829535 -8.44624,1.853959 -17.28195,4.750726 -25.90129,5.386194 7.09858,3.053529 16.44295,2.162165 24.06314,2.921366 19.33347,1.925995 38.54506,3.664201 57.94553,4.618785 45.9011,2.258717 92.31251,3.547939 138.24484,0.75546 14.54341,-0.884966 29.20786,-2.001618 43.72628,-3.292244 8.33907,-0.741234 16.58183,-2.301068 24.9893,-2.316484 -3.57973,-2.533311 -8.20154,-2.836731 -12.46321,-3.657005 -6.82896,-1.314439 -13.66901,-2.843933 -20.48671,-4.246564 -4.67994,-0.962737 -11.04201,-1.930774 -15.01664,-4.63698 -2.44194,-1.6627 -3.49105,-5.046215 -6.48878,-5.87255 -4.63951,-1.279726 -12.06978,0.564873 -16.7875,1.291245 -8.5194,1.310789 -17.25851,1.709529 -25.8769,1.655467 0.0328,-5.030235 -0.3958,-9.862346 -0.71545,-14.861572 -0.24593,-3.860008 0.2656,-7.3394694 -2.81985,-10.3057809 -4.68888,-4.50576159 -13.45367,-2.90549648 -19.47131,-2.94325289 L 235.22327,0.51484983 C 229.57222,0.47939377 219.46252,-1.489222 214.94458,2.5148178 209.27382,7.538514 211.89582,21.50663 211.8512,28.334489 M 84.138531,53.751605 c 2.498115,3.306077 7.733953,4.233848 11.55798,5.686743 8.581399,3.260345 17.568209,6.039936 23.905219,12.892104 5.32645,5.760373 7.2064,13.031169 9.849,20.159035 2.65227,7.151533 6.01177,14.177283 9.36701,21.033463 2.99086,6.11104 6.10499,13.01115 12.61077,16.28557 5.53319,2.78501 12.69729,2.22607 18.71582,2.26383 l 33.89211,0.21262 114.16288,0.71624 30.32451,0.19026 c 6.49659,0.0407 12.74672,0.66901 18.7442,-2.21585 7.68765,-3.69749 12.19609,-11.97868 15.45923,-19.41822 2.06436,-4.70634 4.73174,-9.14673 6.58529,-13.941811 2.56305,-6.632893 4.57849,-14.088115 8.6008,-20.046778 7.89602,-11.69629 26.48431,-16.532327 39.41089,-20.727442 -4.20736,-1.76118 -8.95723,-0.618144 -13.37751,-0.232501 -8.7272,0.762391 -17.24706,1.732329 -25.88734,3.253842 -24.69844,4.35024 -49.99304,6.02595 -74.97178,7.545469 -52.63252,3.200537 -106.3059,1.61581 -158.74015,-3.688516 -26.81432,-2.712298 -53.21083,-9.579317 -80.208929,-9.968058 M 387.75591,135.18549 c 15.29806,8.7926 21.15282,32.2537 7.56704,45.33096 -5.67897,5.46586 -14.5194,7.04117 -22.18007,7.0141 -5.48937,26.81666 -10.77357,53.76308 -17.43665,80.29358 -3.59068,14.29447 -4.9154,29.60992 -14.12439,41.86078 -21.06328,28.01939 -58.28166,24.97878 -89.81022,24.78098 -15.76519,-0.0989 -32.06495,-0.0141 -47.24078,-4.85489 -11.62354,-3.70765 -21.38829,-10.69144 -28.96449,-20.09369 -9.88186,-12.26402 -12.08624,-30.62635 -14.85638,-45.53838 -3.04323,-16.38283 -6.92165,-32.71849 -10.32587,-49.00572 -1.94947,-9.32587 -3.14799,-18.78163 -5.57268,-28.00123 -7.89822,-0.11422 -16.41446,-2.42504 -22.05768,-8.16558 -13.3013,-13.5291 -5.48708,-36.45786 9.02758,-45.22684 -1.26146,-2.82553 -5.26317,-11.21341 -8.93867,-11.23648 -2.0701,-0.013 -3.82769,1.97121 -5.1279,3.30019 -3.36453,3.43622 -6.34,7.39225 -9.1233,11.28658 -11.636448,16.28288 -20.791641,33.53919 -27.56337,52.2638 -21.592327,59.70622 -26.603187,127.40205 -14.172639,189.55727 6.737802,33.69355 19.033385,71.45871 46.652089,94.39474 31.71542,26.33872 76.9222,31.38973 116.6192,34.30345 42.14507,3.09424 86.24395,2.2933 126.72419,-10.64406 19.2757,-6.1601 38.24199,-14.24396 52.79704,-28.51245 15.73642,-15.42517 25.80993,-36.993 32.72603,-57.4716 15.88044,-47.02263 18.75772,-98.73867 12.58385,-147.61785 -2.53827,-20.09133 -5.71577,-40.08791 -11.76733,-59.50211 -6.95052,-22.29602 -16.53151,-43.75294 -29.91334,-63.11177 -3.20209,-4.6319 -6.89035,-8.98544 -10.6868,-13.1596 -1.42223,-1.5628 -3.28124,-3.8511 -5.6528,-3.86597 -3.83963,-0.0241 -7.90318,8.69687 -9.1817,11.62181 m -154.54952,37.48397 c 3.41893,-14.89943 20.18386,-11.23467 32.18256,-11.15939 4.82962,0.0303 10.87274,-0.55666 14.97812,2.4781 3.05528,2.25735 3.281,7.29705 7.34884,8.01998 6.43409,1.14329 13.8771,0.21641 20.4156,0.25743 l 41.02725,0.2574 c 9.28111,0.0583 19.3382,1.20414 28.54183,0.0139 3.97691,-0.51428 7.45214,-2.86961 8.57652,-6.77343 1.67195,-5.80475 0.59162,-13.55469 -5.75283,-15.99172 -4.83911,-1.85865 -11.81074,-0.72256 -16.94092,-0.75475 l -35.6759,-0.22387 -132.89273,-0.83376 -38.35159,-0.2406 c -5.36476,-0.0336 -12.76098,-1.35427 -17.83862,0.53655 -9.48025,3.5307 -8.94958,18.95829 -0.13963,22.86941 4.59974,2.04156 11.09344,1.02132 16.03455,1.05232 l 33.0002,0.20704 45.48679,0.28537 m 15.1394,3.59078 c -0.25733,39.37836 -3.18928,78.57826 -3.44665,117.96101 l 26.75694,0.16787 c 0.25747,-39.40109 -2.16213,-78.60835 -1.90474,-117.99459 l -21.40555,-0.13429 m -86.57687,9.07022 c 0.91774,12.29431 4.43968,24.62592 6.66253,36.74752 3.30895,18.03977 7.50822,35.77575 12.62966,53.38992 3.44136,11.8347 7.39548,23.95142 17.37076,32.15743 9.93092,8.17077 22.25237,10.04055 34.71842,10.11874 -0.89125,-9.11296 -4.77935,-17.68804 -5.13956,-27.12455 -0.51248,-13.43663 0.91123,-26.8384 1.93143,-40.18938 0.93334,-12.20579 0.62104,-24.47182 1.24681,-36.69788 0.47638,-9.2958 1.79242,-18.64488 1.93175,-27.95416 l -71.3518,-0.44764 m 123.08184,0.7722 c -0.0614,9.40413 1.20916,18.61214 1.56628,27.97608 0.72177,18.94293 1.11011,37.86192 1.46076,56.81563 0.11318,6.1559 1.04174,12.15263 0.7238,18.3574 -0.25965,5.06464 -0.53169,10.79775 -1.76171,15.71996 -1.10365,4.41524 -3.14928,8.57724 -3.74335,13.0857 6.53941,0.0409 12.40409,-0.26651 18.74373,-2.00347 32.639,-8.94631 36.36452,-46.19147 42.98277,-73.64253 4.37855,-18.16108 9.74422,-37.23624 11.37952,-55.86112 z" id="path3"></path><path style="fill:#008000;fill-opacity:1;stroke:none;stroke-width:0.882872" d="m 149.85604,360.66804 c -10.36407,3.66613 -11.59402,13.5485 -11.59491,22.8803 v 60.30098 c 0,7.76401 -2.35376,19.98324 4.62815,25.51874 4.8333,3.83128 10.95541,3.32091 16.77783,3.32091 h 33.00088 95.43498 c 19.48748,0 38.57626,1.97333 56.1907,-7.75697 4.9992,-2.76164 10.55761,-6.59121 13.60796,-11.46942 0.91243,-1.4604 2.2619,-4.7935 0.12129,-5.96374 -2.57137,-1.4061 -5.89644,2.73889 -7.48584,4.13805 -6.33349,5.57833 -13.97098,8.72796 -22.2979,10.15946 -31.37135,5.39386 -58.64166,-26.33234 -48.07069,-55.52589 7.89078,-21.79051 33.50839,-32.69364 55.20601,-25.48547 4.87968,1.62113 9.48554,3.95626 13.37876,7.29466 2.96383,2.54139 5.50043,5.93484 8.91914,7.91604 2.75246,1.59492 7.11126,1.3677 8.30017,-2.07645 1.49307,-4.32594 -2.98702,-9.81509 -5.41035,-12.99268 -8.35191,-10.95118 -22.20068,-18.51503 -35.89068,-20.69023 -12.77671,-2.03014 -27.19273,-0.28404 -40.13622,-0.28404 h -81.16434 -35.67663 c -5.51114,0 -12.59385,-1.1396 -17.83831,0.71575 m 233.07365,8.92193 c -3.85755,2.52215 -3.19575,16.73921 0.10346,19.54889 1.83912,1.56521 4.47563,1.38517 6.74822,1.40003 5.20969,0.035 13.09511,1.33187 17.58947,-1.82476 4.70398,-3.30432 3.4544,-11.88455 0.0455,-15.56116 -4.57642,-4.93595 -10.5246,-4.46402 -16.74303,-4.46139 -2.38142,6.1e-4 -5.64851,-0.47193 -7.74362,0.89839 z" id="path4"></path><path style="fill:#666666;fill-opacity:1;stroke:none;stroke-width:0.882872" d="m 158.77519,379.17871 v 73.40991 h 98.11074 v -73.40991 z" id="path5"></path><path style="fill:#008000;fill-opacity:1;stroke:none;stroke-width:0.882872" d="m 95.449176,385.2962 v 41.0746 h 27.649384 v -41.94854 l -27.649384,0.87394 m 222.978944,8.23939 c -4.88592,0.68603 -9.26078,2.24424 -13.37517,4.96129 -24.0193,15.85828 -6.98816,52.5545 20.5105,48.58514 4.89037,-0.70612 10.26951,-2.7695 14.23586,-5.67005 22.23368,-16.26467 5.01257,-51.57922 -21.37119,-47.87638 m 66.04101,8.38971 c -6.34599,3.31654 -5.99012,16.01297 -1.43955,20.68499 4.2687,4.38275 16.62529,4.0087 21.81804,1.44197 6.44142,-3.18371 5.26319,-15.42919 1.11846,-20.03741 -3.67915,-4.09085 -16.77425,-4.55754 -21.49695,-2.08955 m 0.0579,34.70715 c -5.45318,2.29843 -5.04201,16.04095 -2.00771,20.12656 3.33756,4.49372 17.74913,4.08475 22.37193,1.6692 5.34168,-2.79042 5.14011,-15.55242 1.44936,-19.62317 -3.70502,-4.08649 -16.88753,-4.24817 -21.81358,-2.17259 z" id="path6"></path></svg>